<?xml version="1.0" standalone="no"?>
<!DOCTYPE svg PUBLIC "-//W3C//DTD SVG 20010904//EN"
 "http://www.w3.org/TR/2001/REC-SVG-20010904/DTD/svg10.dtd">
<svg version="1.0" xmlns="http://www.w3.org/2000/svg"
 width="300.000000pt" height="86.000000pt" viewBox="0 0 300.000000 86.000000"
 preserveAspectRatio="xMidYMid meet">
<metadata>
Created by potrace 1.10, written by Peter Selinger 2001-2011
</metadata>
<g transform="translate(0.000000,86.000000) scale(0.100000,-0.100000)"
fill="#000000" stroke="none">
<path d="M130 440 l0 -240 235 0 235 0 0 43 c0 38 -2 43 -25 45 -33 2 -85 29
-109 56 -24 27 -46 79 -46 108 0 22 2 23 90 20 l90 -3 0 105 0 106 -235 0
-235 0 0 -240z m443 211 c4 -1 7 -36 5 -78 l-3 -78 -72 -1 c-43 0 -78 -6 -87
-13 -22 -19 -20 -73 4 -104 11 -14 20 -30 20 -36 0 -6 3 -11 8 -11 4 0 19 -11
33 -24 14 -13 42 -29 62 -35 26 -9 37 -18 37 -32 0 -18 -9 -19 -210 -19 l-210
0 -2 93 c-4 199 -4 323 0 335 3 10 48 11 206 8 110 -3 205 -5 209 -5z"/>
<path d="M640 575 l0 -105 91 0 92 0 -6 -36 c-11 -68 -90 -144 -149 -144 -26
0 -28 -3 -28 -45 l0 -45 235 0 235 0 0 240 0 240 -235 0 -235 0 0 -105z m442
77 c4 -1 7 -96 8 -212 l1 -210 -38 0 c-335 -4 -388 -2 -391 14 -2 9 5 19 15
22 33 10 78 37 105 62 32 29 61 99 56 133 -3 23 -8 24 -88 29 l-85 5 -3 74
c-2 49 1 77 9 82 9 5 385 6 411 1z"/>
<path d="M1206 673 c-3 -3 -6 -23 -6 -44 0 -29 5 -39 20 -44 11 -3 24 -3 30 0
15 9 2 25 -15 18 -11 -4 -15 3 -15 26 0 26 4 31 23 31 27 0 48 -30 40 -59 -4
-15 -1 -21 12 -21 11 0 15 6 10 18 -3 11 1 32 9 48 17 32 11 48 -9 21 -10 -14
-14 -15 -18 -4 -5 14 -69 22 -81 10z"/>
<path d="M1340 630 c0 -27 5 -50 10 -50 6 0 10 9 10 20 0 11 6 20 13 20 7 0
18 5 25 12 17 17 -4 48 -33 48 -23 0 -25 -4 -25 -50z m44 21 c3 -5 -1 -11 -9
-15 -9 -3 -15 0 -15 9 0 16 16 20 24 6z"/>
<path d="M1420 631 c0 -28 5 -51 10 -51 6 0 10 10 10 23 l0 22 20 -25 c19 -25
40 -23 24 2 -5 7 -9 27 -9 43 0 25 -4 30 -27 33 -27 3 -28 2 -28 -47z m50 19
c0 -5 -7 -10 -15 -10 -8 0 -15 5 -15 10 0 6 7 10 15 10 8 0 15 -4 15 -10z"/>
<path d="M1500 641 c0 -41 20 -67 44 -58 17 7 27 97 10 97 -7 0 -11 -16 -10
-36 1 -22 -4 -39 -11 -41 -9 -3 -13 8 -13 36 0 23 -4 41 -10 41 -5 0 -10 -17
-10 -39z"/>
<path d="M1587 673 c-14 -13 -6 -42 13 -48 11 -3 20 -11 20 -17 0 -6 -9 -8
-20 -5 -11 3 -20 1 -20 -3 0 -15 19 -22 40 -15 26 8 26 45 0 52 -11 3 -20 9
-20 14 0 5 9 9 20 9 11 0 20 5 20 10 0 11 -43 14 -53 3z"/>
<path d="M1686 633 c1 -40 5 -49 21 -51 28 -4 45 21 41 60 -3 29 -7 33 -33 36
-30 3 -30 2 -29 -45z m44 -3 c0 -19 -5 -30 -14 -30 -10 0 -14 10 -14 30 1 18
6 30 15 30 8 0 13 -12 13 -30z"/>
<path d="M1770 630 c0 -27 5 -50 10 -50 6 0 10 23 10 50 0 28 -4 50 -10 50 -5
0 -10 -22 -10 -50z"/>
<path d="M1814 635 c-9 -25 -13 -49 -9 -53 4 -4 10 -1 12 6 5 14 43 16 43 2 0
-5 4 -10 9 -10 5 0 2 23 -7 50 -9 28 -19 50 -23 50 -4 0 -15 -20 -25 -45z m31
-5 c3 -5 1 -10 -4 -10 -6 0 -11 5 -11 10 0 6 2 10 4 10 3 0 8 -4 11 -10z"/>
<path d="M1884 664 c3 -9 6 -31 6 -50 0 -29 3 -34 24 -34 14 0 28 4 31 10 4 6
13 5 25 -2 25 -16 50 5 50 42 0 62 -62 64 -68 1 -3 -25 -8 -31 -27 -31 -21 0
-23 3 -18 40 5 33 3 40 -12 40 -11 0 -15 -5 -11 -16z m114 -29 c-4 -33 -22
-33 -26 0 -2 18 1 25 13 25 12 0 15 -7 13 -25z"/>
<path d="M2042 668 c-16 -16 -15 -50 2 -74 12 -15 18 -17 33 -8 24 15 30 54 8
54 -12 0 -15 -5 -10 -21 5 -16 3 -20 -6 -17 -21 7 -18 53 3 53 10 0 19 5 20
10 4 15 -35 18 -50 3z"/>
<path d="M2114 638 c9 -53 20 -66 44 -52 19 12 30 94 13 94 -6 0 -11 -18 -11
-41 0 -52 -24 -48 -28 4 -2 20 -8 37 -14 37 -7 0 -8 -15 -4 -42z"/>
<path d="M2200 630 c0 -49 1 -50 30 -50 17 0 30 5 30 10 0 6 -9 10 -20 10 -11
0 -20 5 -20 10 0 6 9 10 20 10 11 0 20 5 20 10 0 6 -9 10 -20 10 -11 0 -20 5
-20 10 0 6 9 10 20 10 11 0 20 5 20 10 0 6 -13 10 -30 10 -29 0 -30 -1 -30
-50z"/>
<path d="M2300 630 c0 -27 5 -50 10 -50 6 0 10 9 10 20 0 13 7 20 20 20 11 0
20 5 20 10 0 6 -9 10 -20 10 -11 0 -20 5 -20 10 0 6 9 10 20 10 11 0 20 5 20
10 0 6 -13 10 -30 10 -29 0 -30 -1 -30 -50z"/>
<path d="M2382 668 c-17 -17 -15 -63 4 -79 22 -18 48 0 52 35 6 45 -29 71 -56
44z m36 -33 c-4 -33 -22 -33 -26 0 -2 18 1 25 13 25 12 0 15 -7 13 -25z"/>
<path d="M2455 630 c0 -27 3 -50 7 -50 5 0 8 9 8 20 0 11 4 20 9 20 5 0 13 -9
16 -20 3 -11 11 -20 16 -20 13 0 11 24 -3 38 -9 9 -9 12 1 12 7 0 11 9 9 23
-2 16 -11 23 -33 25 -30 3 -30 2 -30 -48z m45 20 c0 -5 -7 -10 -15 -10 -8 0
-15 5 -15 10 0 6 7 10 15 10 8 0 15 -4 15 -10z"/>
<path d="M2530 647 c0 -81 62 -89 68 -8 2 24 -1 41 -7 41 -6 0 -11 -18 -11
-41 0 -52 -24 -48 -28 4 -4 46 -22 49 -22 4z"/>
<path d="M2620 630 c0 -27 5 -50 10 -50 6 0 10 12 10 27 0 26 1 26 15 7 8 -10
15 -14 15 -7 0 15 -33 73 -42 73 -5 0 -8 -22 -8 -50z"/>
<path d="M2675 659 c-4 -13 -2 -25 5 -29 8 -5 9 -16 5 -30 -5 -16 -3 -21 5
-18 17 5 19 98 3 98 -6 0 -15 -10 -18 -21z"/>
<path d="M1190 533 c0 -10 182 -13 875 -13 570 0 875 3 875 10 0 6 -306 11
-875 12 -695 2 -875 0 -875 -9z"/>
<path d="M1200 435 c0 -25 5 -45 10 -45 6 0 10 10 10 23 l0 22 20 -25 c24 -31
37 -20 16 13 -15 22 -15 25 0 37 18 16 31 3 41 -42 3 -16 9 -28 13 -28 4 0 10
12 12 28 3 15 9 35 13 45 4 10 3 17 -4 17 -6 0 -11 -7 -11 -15 0 -8 -4 -15
-10 -15 -5 0 -10 7 -10 15 0 21 -50 19 -66 -2 -13 -17 -13 -17 -14 0 0 9 -4
17 -10 17 -5 0 -10 -20 -10 -45z"/>
<path d="M1350 435 c0 -25 5 -45 10 -45 6 0 10 16 10 35 0 24 5 35 15 35 10 0
15 -11 15 -35 0 -19 5 -35 10 -35 6 0 10 20 10 45 0 45 0 45 -35 45 -35 0 -35
0 -35 -45z"/>
<path d="M1440 436 c0 -25 5 -46 10 -46 6 0 10 6 10 14 0 7 9 16 21 19 32 9
22 51 -13 55 -27 3 -28 2 -28 -42z m50 14 c0 -5 -7 -10 -15 -10 -8 0 -15 5
-15 10 0 6 7 10 15 10 8 0 15 -4 15 -10z"/>
<path d="M1520 451 c0 -16 -3 -36 -6 -45 -4 -10 -1 -16 7 -16 9 0 15 15 17 45
1 25 -2 45 -8 45 -5 0 -10 -13 -10 -29z"/>
<path d="M1564 445 c-17 -40 -18 -55 -4 -55 6 0 10 5 10 10 0 6 7 10 15 10 8
0 15 -4 15 -10 0 -5 6 -10 14 -10 11 0 11 8 -3 45 -9 25 -19 45 -24 45 -4 0
-15 -16 -23 -35z m30 -10 c3 -8 1 -15 -4 -15 -6 0 -10 7 -10 15 0 8 2 15 4 15
2 0 6 -7 10 -15z"/>
<path d="M1638 435 c2 -25 9 -45 14 -45 6 0 8 7 5 15 -4 8 -2 17 3 20 5 3 11
-4 15 -15 3 -11 13 -20 21 -20 12 0 12 4 -2 25 -16 24 -16 27 1 45 17 18 17
20 1 20 -9 0 -19 -7 -22 -15 -4 -8 -11 -15 -16 -15 -6 0 -8 7 -4 15 3 8 0 15
-7 15 -8 0 -11 -14 -9 -45z"/>
<path d="M1722 468 c-28 -28 -8 -82 29 -76 21 3 24 8 24 43 0 32 -4 41 -20 43
-11 1 -26 -3 -33 -10z m38 -33 c0 -16 -6 -25 -15 -25 -9 0 -15 9 -15 25 0 16
6 25 15 25 9 0 15 -9 15 -25z"/>
<path d="M1836 464 c-9 -8 -16 -22 -16 -29 0 -18 27 -45 45 -45 18 0 45 27 45
45 0 18 -27 45 -45 45 -7 0 -21 -7 -29 -16z m24 -31 c0 -20 -3 -24 -11 -16 -7
7 -9 19 -6 27 10 24 17 19 17 -11z m30 2 c0 -14 -4 -25 -10 -25 -5 0 -10 11
-10 25 0 14 5 25 10 25 6 0 10 -11 10 -25z"/>
<path d="M1924 466 c-3 -8 -4 -27 -2 -43 2 -22 9 -29 30 -31 30 -4 44 23 34
64 -5 17 -13 24 -32 24 -13 0 -27 -6 -30 -14z m46 -31 c0 -16 -6 -25 -15 -25
-9 0 -15 9 -15 25 0 16 6 25 15 25 9 0 15 -9 15 -25z"/>
<path d="M2002 436 c0 -33 4 -46 14 -46 7 0 11 6 8 14 -3 9 4 16 21 20 20 5
26 12 23 29 -2 17 -11 23 -35 25 -31 3 -31 3 -31 -42z m48 14 c0 -5 -7 -10
-15 -10 -8 0 -15 5 -15 10 0 6 7 10 15 10 8 0 15 -4 15 -10z"/>
<path d="M2084 456 c-10 -41 -1 -61 28 -64 23 -3 29 2 34 24 8 33 -6 58 -34
62 -16 2 -23 -3 -28 -22z m46 -21 c0 -16 -6 -25 -15 -25 -9 0 -15 9 -15 25 0
16 6 25 15 25 9 0 15 -9 15 -25z"/>
<path d="M2165 450 c8 -16 15 -36 15 -45 0 -8 5 -15 10 -15 6 0 10 9 10 21 0
11 5 29 11 41 14 27 2 36 -16 12 -13 -17 -14 -17 -15 -1 0 9 -7 17 -15 17 -14
0 -14 -3 0 -30z"/>
<path d="M2230 435 c0 -32 4 -45 14 -45 10 0 12 7 8 23 -5 20 -4 21 11 8 11
-9 17 -10 17 -2 0 6 5 11 11 11 6 0 9 -9 6 -20 -3 -13 0 -20 9 -20 9 0 13 13
12 45 0 31 -5 45 -14 45 -8 0 -14 -6 -14 -14 0 -24 -21 -30 -27 -7 -10 40 -33
24 -33 -24z"/>
<path d="M2368 435 l-17 -45 39 0 c22 0 40 4 40 9 0 16 -30 81 -38 81 -4 0
-15 -20 -24 -45z m41 -27 c1 -5 -6 -8 -14 -8 -16 0 -19 9 -8 36 6 16 7 16 14
-2 4 -10 8 -22 8 -26z"/>
<path d="M2440 435 c0 -25 4 -45 9 -45 5 0 11 20 13 45 2 31 -1 45 -9 45 -9 0
-13 -16 -13 -45z"/>
<path d="M2489 435 c-16 -44 -14 -56 8 -34 8 8 16 7 30 -2 26 -16 53 -5 53 21
0 27 18 26 22 -2 2 -12 8 -23 15 -25 9 -3 8 8 -3 41 -9 25 -20 46 -24 46 -5 0
-15 -19 -23 -42 l-15 -43 -18 43 c-9 23 -20 42 -23 42 -3 0 -13 -20 -22 -45z
m31 -5 c0 -5 -4 -10 -10 -10 -5 0 -10 5 -10 10 0 6 5 10 10 10 6 0 10 -4 10
-10z"/>
<path d="M2635 461 c-3 -10 -3 -31 1 -46 5 -21 11 -26 33 -23 23 3 26 7 26 43
0 36 -3 40 -27 43 -19 2 -28 -2 -33 -17z m45 -26 c0 -16 -6 -25 -15 -25 -9 0
-15 9 -15 25 0 16 6 25 15 25 9 0 15 -9 15 -25z"/>
<path d="M2718 434 c-2 -32 0 -44 11 -44 10 0 12 9 8 34 -5 30 -3 35 18 39 21
4 24 0 27 -32 3 -31 7 -36 30 -39 22 -3 29 2 34 22 12 51 -1 64 -65 65 l-59 0
-4 -45z m112 1 c0 -16 -6 -25 -15 -25 -9 0 -15 9 -15 25 0 16 6 25 15 25 9 0
15 -9 15 -25z"/>
<path d="M2866 453 c7 -16 14 -36 14 -45 0 -10 5 -18 10 -18 6 0 10 9 10 21 0
11 5 29 11 41 14 27 2 36 -16 12 -13 -17 -14 -17 -15 -1 0 9 -6 17 -14 17 -13
0 -13 -4 0 -27z"/>
<path d="M1190 338 c0 -10 180 -12 875 -10 569 1 875 6 875 12 0 7 -305 10
-875 10 -693 0 -875 -3 -875 -12z"/>
<path d="M1709 262 c-3 -45 -1 -62 9 -62 13 0 14 45 3 95 -6 25 -8 19 -12 -33z"/>
<path d="M1200 250 c0 -27 5 -50 10 -50 6 0 10 10 10 23 l0 22 20 -25 c23 -31
38 -19 17 13 -14 22 -14 26 1 40 9 9 12 20 8 24 -4 5 -16 -3 -27 -16 -19 -23
-19 -23 -19 -2 0 12 -4 21 -10 21 -5 0 -10 -22 -10 -50z"/>
<path d="M1280 250 c0 -27 5 -50 10 -50 6 0 10 23 10 50 0 28 -4 50 -10 50 -5
0 -10 -22 -10 -50z"/>
<path d="M1320 251 c0 -50 1 -51 29 -51 34 0 42 14 32 61 -5 27 -12 35 -34 37
-26 3 -27 2 -27 -47z m45 19 c3 -5 -1 -10 -9 -10 -9 0 -16 5 -16 10 0 6 4 10
9 10 6 0 13 -4 16 -10z m5 -40 c0 -5 -7 -10 -15 -10 -8 0 -15 5 -15 10 0 6 7
10 15 10 8 0 15 -4 15 -10z"/>
<path d="M1400 250 c0 -27 5 -50 10 -50 6 0 10 9 10 20 0 11 4 20 9 20 5 0 11
-9 14 -20 9 -34 23 -22 23 18 -1 47 -11 62 -42 62 -22 0 -24 -4 -24 -50z m48
18 c-6 -18 -28 -21 -28 -4 0 9 7 16 16 16 9 0 14 -5 12 -12z"/>
<path d="M1489 298 c-5 -26 -3 -98 3 -98 4 0 8 23 8 50 0 28 -2 50 -5 50 -3 0
-5 -1 -6 -2z"/>
<path d="M1533 293 c-21 -8 -15 -44 7 -50 11 -3 20 -9 20 -14 0 -5 -9 -9 -20
-9 -11 0 -20 -5 -20 -11 0 -6 12 -9 28 -7 34 4 44 43 13 53 -24 7 -29 28 -7
23 8 -2 15 2 16 7 1 11 -19 16 -37 8z"/>
<path d="M1628 250 l-3 -51 30 3 c26 3 30 7 33 36 4 37 -12 62 -38 62 -15 0
-19 -10 -22 -50z m42 0 c0 -20 -5 -30 -15 -30 -10 0 -15 10 -15 30 0 20 5 30
15 30 10 0 15 -10 15 -30z"/>
<path d="M1745 278 c4 -13 9 -35 12 -50 6 -34 23 -37 23 -5 0 12 7 31 15 41
18 23 19 36 5 36 -6 0 -15 -10 -20 -22 l-9 -23 -7 23 c-3 12 -11 22 -16 22 -6
0 -7 -9 -3 -22z"/>
<path d="M1830 276 c-5 -14 -14 -37 -20 -51 -7 -20 -6 -25 5 -25 8 0 15 5 15
10 0 14 28 12 33 -2 2 -7 7 -11 10 -8 7 6 -14 85 -25 96 -4 4 -12 -5 -18 -20z
m20 -31 c0 -8 -4 -15 -10 -15 -5 0 -7 7 -4 15 4 8 8 15 10 15 2 0 4 -7 4 -15z"/>
<path d="M1890 250 c0 -49 1 -50 30 -50 17 0 30 5 30 10 0 6 -9 10 -20 10 -17
0 -20 7 -20 40 0 22 -4 40 -10 40 -5 0 -10 -22 -10 -50z"/>
<path d="M1971 286 c-7 -8 -11 -30 -9 -48 2 -28 7 -33 28 -33 22 0 25 5 28 39
4 50 -22 72 -47 42z m34 -36 c0 -13 -6 -25 -12 -27 -9 -3 -13 6 -13 27 0 21 4
30 13 28 6 -3 12 -15 12 -28z"/>
<path d="M2052 288 c-18 -18 -15 -77 4 -85 20 -8 48 8 52 31 3 11 -3 16 -20
15 -13 0 -17 -3 -10 -6 17 -7 15 -23 -3 -23 -10 0 -15 10 -15 31 0 26 3 29 21
24 15 -5 20 -3 17 6 -6 19 -31 22 -46 7z"/>
<path d="M2150 250 c0 -27 5 -50 10 -50 6 0 10 9 10 20 0 11 7 20 15 20 8 0
15 5 15 11 0 6 -7 9 -15 5 -9 -3 -15 0 -15 9 0 8 9 15 20 15 11 0 20 5 20 10
0 6 -13 10 -30 10 -29 0 -30 -1 -30 -50z"/>
<path d="M2232 288 c-18 -18 -15 -77 4 -85 39 -15 68 52 36 83 -17 17 -25 17
-40 2z m33 -38 c0 -13 -6 -25 -12 -27 -9 -3 -13 6 -13 27 0 21 4 30 13 28 6
-3 12 -15 12 -28z"/>
<path d="M2300 250 c0 -48 19 -74 21 -27 l0 22 16 -22 c20 -29 37 -30 22 -2
-7 15 -8 24 0 32 16 16 -6 47 -34 47 -23 0 -25 -4 -25 -50z m42 15 c0 -5 -5
-11 -11 -13 -6 -2 -11 4 -11 13 0 9 5 15 11 13 6 -2 11 -8 11 -13z"/>
<path d="M2380 250 c0 -27 5 -50 10 -50 6 0 10 12 10 27 0 25 1 26 14 8 13
-18 13 -18 24 1 10 17 11 17 12 -8 0 -16 5 -28 10 -28 6 0 10 23 10 50 0 56
-12 64 -34 23 l-14 -28 -11 28 c-16 42 -31 32 -31 -23z"/>
<path d="M2487 293 c-13 -12 -7 -70 8 -83 8 -6 23 -9 35 -5 16 5 20 15 20 51
0 24 -4 44 -10 44 -5 0 -10 -18 -10 -40 0 -30 -4 -40 -16 -40 -12 0 -15 8 -13
34 3 36 -2 51 -14 39z"/>
</g>
</svg>
